<svg xmlns="http://www.w3.org/2000/svg" viewBox="0 0 128 128" role="img" aria-labelledby="title">
  <title id="title">Ruta Verde</title><rect width="128" height="128" rx="30" fill="#123a31"/>
  <path d="M31 75c0-22 15-40 37-40 13 0 23 5 29 14-16-2-31 6-38 20-5 10-5 20-2 29-16-5-26-12-26-23Z" fill="#dcec75"/>
  <path d="M49 91c9-20 22-33 43-42" fill="none" stroke="#fffdf8" stroke-width="8" stroke-linecap="round"/><circle cx="49" cy="91" r="7" fill="#fffdf8"/><circle cx="92" cy="49" r="7" fill="#fffdf8"/>
  <path d="M69 85h25l8 10v10H64V93l5-8Z" fill="#1d8062" stroke="#fffdf8" stroke-width="4" stroke-linejoin="round"/><circle cx="73" cy="106" r="6" fill="#123a31" stroke="#fffdf8" stroke-width="3"/><circle cx="94" cy="106" r="6" fill="#123a31" stroke="#fffdf8" stroke-width="3"/>
</svg>
